<?xml version="1.0" encoding="UTF-8"?>
<svg xmlns="http://www.w3.org/2000/svg">

  <symbol id="icon-award" viewBox="0 0 24 24">
    <path fill="currentColor" d="M19.496 13.983l1.966 3.406a1.001 1.001 0 0 1 -.705 1.488l-.113 .011l-.112 -.001l-2.933 -.19l-1.303 2.636a1.001 1.001 0 0 1 -1.608 .26l-.082 -.094l-.072 -.11l-1.968 -3.407a8.994 8.994 0 0 0 6.93 -3.999z" />
    <path fill="currentColor" d="M11.43 17.982l-1.966 3.408a1.001 1.001 0 0 1 -1.622 .157l-.076 -.1l-.064 -.114l-1.304 -2.635l-2.931 .19a1.001 1.001 0 0 1 -1.022 -1.29l.04 -.107l.05 -.1l1.968 -3.409a8.994 8.994 0 0 0 6.927 4.001z" />
    <path fill="currentColor" d="M12 2l.24 .004a7 7 0 0 1 6.76 6.996l-.003 .193l-.007 .192l-.018 .245l-.026 .242l-.024 .178a6.985 6.985 0 0 1 -.317 1.268l-.116 .308l-.153 .348a7.001 7.001 0 0 1 -12.688 -.028l-.13 -.297l-.052 -.133l-.08 -.217l-.095 -.294a6.96 6.96 0 0 1 -.093 -.344l-.06 -.271l-.049 -.271l-.02 -.139l-.039 -.323l-.024 -.365l-.006 -.292a7 7 0 0 1 6.76 -6.996l.24 -.004z" />
  </symbol>
  <symbol id="icon-home" viewBox="0 0 24 24">
    <path fill="none" d="M0 0h24v24H0z" />
    <path fill="currentColor" d="M12.707 2.293l9 9c.63 .63 .184 1.707 -.707 1.707h-1v6a3 3 0 0 1 -3 3h-1v-7a3 3 0 0 0 -2.824 -2.995l-.176 -.005h-2a3 3 0 0 0 -3 3v7h-1a3 3 0 0 1 -3 -3v-6h-1c-.89 0 -1.337 -1.077 -.707 -1.707l9 -9a1 1 0 0 1 1.414 0m.293 11.707a1 1 0 0 1 1 1v7h-4v-7a1 1 0 0 1 .883 -.993l.117 -.007z" />
</symbol>

  <symbol id="icon-phone" viewBox="0 0 24 24">
    <path fill="currentColor" d="M20.01 15.38c-1.23 0-2.42-.2-3.53-.56a.977.977 0 0 0-1.01.24l-2.2 2.2c-2.83-1.44-5.15-3.75-6.59-6.59l2.2-2.21c.28-.26.36-.65.25-1A11.36 11.36 0 0 1 8.6 4c0-.55-.45-1-1-1H4c-.55 0-1 .45-1 1 0 9.39 7.61 17 17 17c.55 0 1-.45 1-1v-3.58c0-.57-.46-1.04-1-1.04z"/>
  </symbol>

  <symbol id="icon-location" viewBox="0 0 24 24">
    <path fill="#EA4335" d="M12 2C8.13 2 5 5.13 5 9c0 5.25 7 13 7 13s7-7.75 7-13c0-3.87-3.13-7-7-7zm0 9.5c-1.38 0-2.5-1.12-2.5-2.5s1.12-2.5 2.5-2.5s2.5 1.12 2.5 2.5s-1.12 2.5-2.5 2.5z"/>
</symbol>

  <symbol id="icon-website" viewBox="0 0 24 24">
    <path fill="currentColor" d="M11.99 2C6.47 2 2 6.48 2 12s4.47 10 9.99 10C17.52 22 22 17.52 22 12S17.52 2 11.99 2zm6.93 6h-2.95a15.65 15.65 0 0 0-1.38-3.56A8.03 8.03 0 0 1 18.93 8zM12 4.04c.83 1.2 1.48 2.53 1.91 3.96h-3.82c.43-1.43 1.08-2.76 1.91-3.96zM4.26 14C4.1 13.36 4 12.69 4 12s.1-1.36.26-2h3.38c-.08.66-.14 1.32-.14 2s.06 1.34.14 2H4.26zm.82 2h2.95c.32 1.25.78 2.45 1.38 3.56A7.987 7.987 0 0 1 5.08 16zm2.95-8H5.08a7.987 7.987 0 0 1 4.33-3.56A15.65 15.65 0 0 0 8.03 8zM12 19.96c-.83-1.2-1.48-2.53-1.91-3.96h3.82c-.43 1.43-1.08 2.76-1.91 3.96zM14.34 14H9.66c-.09-.66-.16-1.32-.16-2s.07-1.34.16-2h4.68c.09.65.16 1.32.16 2s-.07 1.34-.16 2zm.25 5.56c.6-1.11 1.06-2.31 1.38-3.56h2.95a7.987 7.987 0 0 1-4.33 3.56zM16.36 14c.08-.66.14-1.32.14-2s-.06-1.34-.14-2h3.38c.16.64.26 1.31.26 2s-.1 1.36-.26 2h-3.38z"/>
  </symbol>

  <symbol id="icon-whatsapp" viewBox="0 0 24 24">
    <path fill="currentColor" d="M12 2a10 10 0 0 0-8.78 14.79L2 22l5.37-1.18A10 10 0 1 0 12 2zm5.02 13.62c-.21.58-1.23 1.11-1.7 1.18c-.44.07-.99.1-1.6-.1c-.37-.12-.85-.28-1.46-.54c-2.57-1.11-4.25-3.84-4.38-4.01c-.13-.17-1.04-1.38-1.04-2.64s.66-1.88.89-2.14c.23-.26.5-.33.66-.33h.48c.15 0 .35-.06.54.39c.21.5.71 1.73.77 1.85c.06.13.1.28.02.45c-.08.17-.12.28-.25.43c-.13.15-.27.33-.39.44c-.13.13-.26.27-.11.53c.15.26.66 1.09 1.42 1.77c.98.87 1.81 1.14 2.07 1.27c.26.13.41.11.56-.07c.15-.17.65-.76.82-1.02c.17-.26.35-.22.58-.13c.24.09 1.5.71 1.76.84c.26.13.43.19.5.3c.07.11.07.65-.14 1.23z"/>
  </symbol>

  <symbol id="icon-google" viewBox="0 0 24 24">
    <path fill="currentColor" d="M12 2a9.96 9.96 0 0 1 6.29 2.226a1 1 0 0 1 .04 1.52l-1.51 1.362a1 1 0 0 1 -1.265 .06a6 6 0 1 0 2.103 6.836l.001 -.004h-3.66a1 1 0 0 1 -.992 -.883l-.007 -.117v-2a1 1 0 0 1 1 -1h6.945a1 1 0 0 1 .994 .89c.04 .367 .061 .737 .061 1.11c0 5.523 -4.477 10 -10 10s-10 -4.477 -10 -10s4.477 -10 10 -10z" />
  </symbol>

  <symbol id="icon-save" viewBox="0 0 24 24">
    <path fill="currentColor" d="M17 3H5c-1.11 0-2 .9-2 2v14c0 1.1.89 2 2 2h14c1.1 0 2-.9 2-2V7l-4-4zm-5 16c-1.66 0-3-1.34-3-3s1.34-3 3-3s3 1.34 3 3s-1.34 3-3 3zm3-10H5V5h10v4z"/>
  </symbol>

  <symbol id="icon-share" viewBox="0 0 24 24">
    <path fill="currentColor" d="M18 16.08c-.76 0-1.44.3-1.96.77L8.91 12.7c.05-.23.09-.46.09-.7s-.04-.47-.09-.7l7.05-4.11c.54.5 1.25.81 2.04.81c1.66 0 3-1.34 3-3s-1.34-3-3-3s-3 1.34-3 3c0 .24.04.47.09.7L8.04 9.81C7.5 9.31 6.79 9 6 9c-1.66 0-3 1.34-3 3s1.34 3 3 3c.79 0 1.5-.31 2.04-.81l7.12 4.16c-.05.21-.08.43-.08.65c0 1.61 1.31 2.92 2.92 2.92c1.61 0 2.92-1.31 2.92-2.92s-1.31-2.92-2.92-2.92z"/>
  </symbol>

  <symbol id="icon-link" viewBox="0 0 24 24">
    <path fill="currentColor" d="M3.9 12c0-1.71 1.39-3.1 3.1-3.1h4V7H7c-2.76 0-5 2.24-5 5s2.24 5 5 5h4v-1.9H7c-1.71 0-3.1-1.39-3.1-3.1zM8 13h8v-2H8v2zm9-6h-4v1.9h4c1.71 0 3.1 1.39 3.1 3.1s-1.39 3.1-3.1 3.1h-4V17h4c2.76 0 5-2.24 5-5s-2.24-5-5-5z"/>
  </symbol>

</svg>
