<?xml version="1.0" encoding="UTF-8"?>
<svg xmlns="http://www.w3.org/2000/svg">

  <symbol id="icon-award" viewBox="0 0 24 24">
    <path fill="#FFD700" d="M19.496 13.983l1.966 3.406a1.001 1.001 0 0 1 -.705 1.488l-.113 .011l-.112 -.001l-2.933 -.19l-1.303 2.636a1.001 1.001 0 0 1 -1.608 .26l-.082 -.094l-.072 -.11l-1.968 -3.407a8.994 8.994 0 0 0 6.93 -3.999z" />
    <path fill="#FFD700" d="M11.43 17.982l-1.966 3.408a1.001 1.001 0 0 1 -1.622 .157l-.076 -.1l-.064 -.114l-1.304 -2.635l-2.931 .19a1.001 1.001 0 0 1 -1.022 -1.29l.04 -.107l.05 -.1l1.968 -3.409a8.994 8.994 0 0 0 6.927 4.001z" />
    <path fill="#FFD700" d="M12 2l.24 .004a7 7 0 0 1 6.76 6.996l-.003 .193l-.007 .192l-.018 .245l-.026 .242l-.024 .178a6.985 6.985 0 0 1 -.317 1.268l-.116 .308l-.153 .348a7.001 7.001 0 0 1 -12.688 -.028l-.13 -.297l-.052 -.133l-.08 -.217l-.095 -.294a6.96 6.96 0 0 1 -.093 -.344l-.06 -.271l-.049 -.271l-.02 -.139l-.039 -.323l-.024 -.365l-.006 -.292a7 7 0 0 1 6.76 -6.996l.24 -.004z" />
  </symbol>
  <symbol id="icon-home" viewBox="0 0 24 24">
    <path fill="none" d="M0 0h24v24H0z" />
    <path fill="#1b5dcc" d="M12.707 2.293l9 9c.63 .63 .184 1.707 -.707 1.707h-1v6a3 3 0 0 1 -3 3h-1v-7a3 3 0 0 0 -2.824 -2.995l-.176 -.005h-2a3 3 0 0 0 -3 3v7h-1a3 3 0 0 1 -3 -3v-6h-1c-.89 0 -1.337 -1.077 -.707 -1.707l9 -9a1 1 0 0 1 1.414 0m.293 11.707a1 1 0 0 1 1 1v7h-4v-7a1 1 0 0 1 .883 -.993l.117 -.007z" />
</symbol>

  <symbol id="icon-phone" viewBox="0 0 24 24">
    <path
        fill="#42A5F5"
        stroke="#0B3D91"
        stroke-width="1.2"
        paint-order="stroke fill"
        stroke-linejoin="round"
        d="M20.01 15.38c-1.23 0-2.42-.2-3.53-.56a.977.977 0 0 0-1.01.24l-2.2 2.2c-2.83-1.44-5.15-3.75-6.59-6.59l2.2-2.21c.28-.26.36-.65.25-1A11.36 11.36 0 0 1 8.6 4c0-.55-.45-1-1-1H4c-.55 0-1 .45-1 1 0 9.39 7.61 17 17 17c.55 0 1-.45 1-1v-3.58c0-.57-.46-1.04-1-1.04z"
    />
</symbol>

  <symbol id="icon-location" viewBox="0 0 24 24">
    <path fill="#EA4335" d="M12 2C8.13 2 5 5.13 5 9c0 5.25 7 13 7 13s7-7.75 7-13c0-3.87-3.13-7-7-7zm0 9.5c-1.38 0-2.5-1.12-2.5-2.5s1.12-2.5 2.5-2.5s2.5 1.12 2.5 2.5s-1.12 2.5-2.5 2.5z"/>
</symbol>

  <symbol id="icon-vcard" viewBox="0 0 24 24">

    <!-- Card background -->
    <path fill="#FFFFFF" d="M18 3a4 4 0 0 1 4 4v10a4 4 0 0 1 -4 4h-12a4 4 0 0 1 -4 -4v-10q 0 -.053 .005 -.102a3.994 3.994 0 0 1 3.995 -3.898z"/>

    <!-- Person -->
    <circle cx="9" cy="10" r="2.2" fill="#64B5F6"/>

    <!-- Info lines -->
    <rect x="14" y="8" width="3" height="1.5" rx="0.75" fill="#64B5F6"/>
    <rect x="14" y="11" width="3" height="1.5" rx="0.75" fill="#64B5F6"/>

    <!-- Bottom line -->
    <rect x="7" y="15.5" width="10" height="1.5" rx="0.75" fill="#64B5F6"/>

</symbol>

  <symbol id="icon-whatsapp" viewBox="0 0 24 24">
    <path fill="#25D366" d="M12 2a10 10 0 0 0-8.78 14.79L2 22l5.37-1.18A10 10 0 1 0 12 2zm5.02 13.62c-.21.58-1.23 1.11-1.7 1.18c-.44.07-.99.1-1.6-.1c-.37-.12-.85-.28-1.46-.54c-2.57-1.11-4.25-3.84-4.38-4.01c-.13-.17-1.04-1.38-1.04-2.64s.66-1.88.89-2.14c.23-.26.5-.33.66-.33h.48c.15 0 .35-.06.54.39c.21.5.71 1.73.77 1.85c.06.13.1.28.02.45c-.08.17-.12.28-.25.43c-.13.15-.27.33-.39.44c-.13.13-.26.27-.11.53c.15.26.66 1.09 1.42 1.77c.98.87 1.81 1.14 2.07 1.27c.26.13.41.11.56-.07c.15-.17.65-.76.82-1.02c.17-.26.35-.22.58-.13c.24.09 1.5.71 1.76.84c.26.13.43.19.5.3c.07.11.07.65-.14 1.23z"/>
  </symbol>

  <symbol id="icon-google" viewBox="0 0 24 24">
    <path
        fill="#4285F4"
        stroke="#082A66"
        stroke-width="1.5"
        paint-order="stroke fill"
        stroke-linejoin="round"
        d="M12 2a9.96 9.96 0 0 1 6.29 2.226a1 1 0 0 1 .04 1.52l-1.51 1.362a1 1 0 0 1 -1.265 .06a6 6 0 1 0 2.103 6.836l.001 -.004h-3.66a1 1 0 0 1 -.992 -.883l-.007 -.117v-2a1 1 0 0 1 1 -1h6.945a1 1 0 0 1 .994 .89c.04 .367 .061 .737 .061 1.11c0 5.523 -4.477 10 -10 10s-10 -4.477 -10 -10s4.477 -10 10 -10z"
    />
</symbol>

  <symbol id="icon-save" viewBox="0 0 24 24">
    <path fill="currentColor" d="M17 3H5c-1.11 0-2 .9-2 2v14c0 1.1.89 2 2 2h14c1.1 0 2-.9 2-2V7l-4-4zm-5 16c-1.66 0-3-1.34-3-3s1.34-3 3-3s3 1.34 3 3s-1.34 3-3 3zm3-10H5V5h10v4z"/>
  </symbol>

  <symbol id="icon-share" viewBox="0 0 24 24">
    <path fill="#FF9800" d="M18 16.08c-.76 0-1.44.3-1.96.77L8.91 12.7c.05-.23.09-.46.09-.7s-.04-.47-.09-.7l7.05-4.11c.54.5 1.25.81 2.04.81c1.66 0 3-1.34 3-3s-1.34-3-3-3s-3 1.34-3 3c0 .24.04.47.09.7L8.04 9.81C7.5 9.31 6.79 9 6 9c-1.66 0-3 1.34-3 3s1.34 3 3 3c.79 0 1.5-.31 2.04-.81l7.12 4.16c-.05.21-.08.43-.08.65c0 1.61 1.31 2.92 2.92 2.92c1.61 0 2.92-1.31 2.92-2.92s-1.31-2.92-2.92-2.92z"/>
  </symbol>

  <symbol id="icon-copy" viewBox="0 0 24 24">
    <path fill="none" d="M0 0h24v24H0z" />
    <path fill="#81D4FA" d="M20.926 7.074a3.67 3.67 0 0 1 1.074 2.593v8.666a3.667 3.667 0 0 1 -3.667 3.667h-8.666a3.667 3.667 0 0 1 -3.667 -3.667v-8.666q 0 -.053 .005 -.102a3.66 3.66 0 0 1 3.662 -3.565h8.666c.973 0 1.905 .386 2.593 1.074" />
    <path fill="#81D4FA" d="M17.374 3.514a1 1 0 1 1 -1.748 .972c-.221 -.398 -.342 -.486 -.626 -.486h-10c-.548 0 -1 .452 -1 1v9.998c0 .36 .194 .692 .507 .87a1 1 0 1 1 -.99 1.738a3 3 0 0 1 -1.517 -2.606v-10c0 -1.652 1.348 -3 3 -3h10c1.094 0 1.828 .533 2.374 1.514" />
</symbol>

  <symbol id="icon-calendar" viewBox="0 0 24 24">
    <!-- Red calendar header -->
    <path fill="#EF5350" d="M6 4h12a3 3 0 0 1 3 3v2H3V7a3 3 0 0 1 3-3z"/>

    <!-- White body -->
    <path fill="#FFFFFF" d="M3 9h18v10a3 3 0 0 1-3 3H6a3 3 0 0 1-3-3z"/>

    <!-- Calendar dots -->
    <circle cx="8" cy="13" r="1" fill="#00796B"/>
    <circle cx="12" cy="13" r="1" fill="#00796B"/>
    <circle cx="16" cy="13" r="1" fill="#00796B"/>
    <circle cx="8" cy="17" r="1" fill="#00796B"/>
    <circle cx="12" cy="17" r="1" fill="#00796B"/>

    <!-- Binding rings -->
    <rect x="7" y="2" width="2" height="4" rx="1" fill="#FFFFFF"/>
    <rect x="15" y="2" width="2" height="4" rx="1" fill="#FFFFFF"/>
</symbol>

</svg>
